<?xml version="1.0" encoding="UTF-8" standalone="no"?>
<svg
   xmlns:dc="http://purl.org/dc/elements/1.1/"
   xmlns:cc="http://creativecommons.org/ns#"
   xmlns:rdf="http://www.w3.org/1999/02/22-rdf-syntax-ns#"
   xmlns:svg="http://www.w3.org/2000/svg"
   xmlns="http://www.w3.org/2000/svg"
   xmlns:sodipodi="http://sodipodi.sourceforge.net/DTD/sodipodi-0.dtd"
   xmlns:inkscape="http://www.inkscape.org/namespaces/inkscape"
   width="134.6559mm"
   height="134.6559mm"
   viewBox="0 0 134.6559 134.6559"
   version="1.1"
   id="svg8"
   inkscape:version="1.0.2 (e86c870879, 2021-01-15)"
   sodipodi:docname="profile.svg">
  <defs
     id="defs2" />
  <sodipodi:namedview
     id="base"
     pagecolor="#ffffff"
     bordercolor="#666666"
     borderopacity="1.0"
     inkscape:pageopacity="0.0"
     inkscape:pageshadow="2"
     inkscape:zoom="0.39504086"
     inkscape:cx="292.36334"
     inkscape:cy="465.34797"
     inkscape:document-units="mm"
     inkscape:current-layer="layer1"
     inkscape:document-rotation="0"
     showgrid="false"
     fit-margin-top="0"
     fit-margin-left="0"
     fit-margin-right="0"
     fit-margin-bottom="0"
     inkscape:window-width="1410"
     inkscape:window-height="908"
     inkscape:window-x="0"
     inkscape:window-y="0"
     inkscape:window-maximized="1" />
  <metadata
     id="metadata5">
    <rdf:RDF>
      <cc:Work
         rdf:about="">
        <dc:format>image/svg+xml</dc:format>
        <dc:type
           rdf:resource="http://purl.org/dc/dcmitype/StillImage" />
        <dc:title></dc:title>
      </cc:Work>
    </rdf:RDF>
  </metadata>
  <g
     inkscape:label="Layer 1"
     inkscape:groupmode="layer"
     id="layer1"
     transform="translate(-28.478867,-25.04335)">
    <path
       id="path860"
       style="fill:#5fa3d3;fill-opacity:1;stroke-width:0;stop-color:#000000"
       d="M 253.78516 0 A 254.46784 254.46784 0 0 0 97.070312 54.517578 A 254.46784 254.46784 0 0 0 53.755859 410.89258 A 254.46784 254.46784 0 0 0 86.742188 445.83594 L 86.742188 436.90625 C 86.742187 362.93296 129.89953 302.58705 185.33008 296.08203 C 215.60141 317.11559 255.75196 323.87719 290.91797 312.19531 C 302.54637 308.55604 313.55283 303.05387 323.5332 296.07422 C 378.99845 302.53532 422.19336 362.90087 422.19336 436.90625 L 422.19336 445.83594 A 254.46784 254.46784 0 0 0 453.65234 96.101562 A 254.46784 254.46784 0 0 0 253.78516 0 z M 254.11719 104.07617 A 92.887119 92.887119 0 0 1 327.17383 139.1543 A 92.887119 92.887119 0 0 1 312.62695 269.38867 L 311.21094 270.50391 A 92.887119 92.887119 0 0 1 181.20312 254.06055 A 92.887119 92.887119 0 0 1 197.01367 123.97461 A 92.887119 92.887119 0 0 1 254.11719 104.07617 z M 100.24023 456.87109 A 254.46784 254.46784 0 0 0 101.30859 457.68164 A 254.46783 254.46783 0 0 1 100.24023 456.87109 z M 404.3418 460.11719 A 254.46784 254.46784 0 0 1 402.17383 461.67773 A 254.46783 254.46783 0 0 0 404.3418 460.11719 z M 108.91016 463.19336 A 254.46784 254.46784 0 0 0 109.7793 463.79883 A 254.46783 254.46783 0 0 1 108.91016 463.19336 z M 111.11914 464.7168 A 254.46784 254.46784 0 0 0 111.96484 465.29102 A 254.46783 254.46783 0 0 1 111.11914 464.7168 z M 116.70898 468.42188 A 254.46784 254.46784 0 0 0 117.83984 469.14453 A 254.46783 254.46783 0 0 1 116.70898 468.42188 z M 391.05078 469.17383 A 254.46783 254.46783 0 0 1 389.91797 469.89062 A 254.46784 254.46784 0 0 0 391.05078 469.17383 z M 388.7793 470.60156 A 254.46783 254.46783 0 0 1 387.63867 471.30664 A 254.46784 254.46784 0 0 0 388.7793 470.60156 z M 129.33984 476.04492 A 254.46784 254.46784 0 0 0 130.13672 476.49414 A 254.46783 254.46783 0 0 1 129.33984 476.04492 z M 135.22266 479.26562 A 254.46784 254.46784 0 0 0 135.92773 479.63867 A 254.46783 254.46783 0 0 1 135.22266 479.26562 z M 147.23242 485.23633 A 254.46784 254.46784 0 0 0 148.45117 485.79883 A 254.46783 254.46783 0 0 1 147.23242 485.23633 z M 358.9668 486.48828 A 254.46783 254.46783 0 0 1 357.99023 486.92578 A 254.46784 254.46784 0 0 0 358.9668 486.48828 z M 153.35156 487.98242 A 254.46784 254.46784 0 0 0 154.58398 488.51172 A 254.46783 254.46783 0 0 1 153.35156 487.98242 z M 158.29883 490.0625 A 254.46784 254.46784 0 0 0 159.17383 490.41797 A 254.46783 254.46783 0 0 1 158.29883 490.0625 z M 346.6543 491.65039 A 254.46783 254.46783 0 0 1 345.59961 492.05664 A 254.46784 254.46784 0 0 0 346.6543 491.65039 z M 164.54102 492.51562 A 254.46784 254.46784 0 0 0 165.79688 492.98633 A 254.46783 254.46783 0 0 1 164.54102 492.51562 z M 168.31641 493.9082 A 254.46784 254.46784 0 0 0 169.5625 494.35352 A 254.46783 254.46783 0 0 1 168.31641 493.9082 z M 331.51172 496.99023 A 254.46783 254.46783 0 0 1 330.39648 497.3418 A 254.46784 254.46784 0 0 0 331.51172 496.99023 z M 178.48633 497.32617 A 254.46784 254.46784 0 0 0 179.6875 497.69922 A 254.46783 254.46783 0 0 1 178.48633 497.32617 z M 190.08984 500.65625 A 254.46783 254.46783 0 0 0 191.38867 500.99219 A 254.46784 254.46784 0 0 1 190.08984 500.65625 z M 193.99219 501.64453 A 254.46784 254.46784 0 0 0 195.29492 501.95898 A 254.46783 254.46783 0 0 1 193.99219 501.64453 z M 312.2832 502.2793 A 254.46784 254.46784 0 0 1 310.97656 502.58203 A 254.46783 254.46783 0 0 0 312.2832 502.2793 z M 205.78125 504.23438 A 254.46784 254.46784 0 0 0 206.99414 504.46875 A 254.46783 254.46783 0 0 1 205.78125 504.23438 z M 209.73828 504.97266 A 254.46784 254.46784 0 0 0 210.90625 505.17773 A 254.46783 254.46783 0 0 1 209.73828 504.97266 z M 288.50586 506.64844 A 254.46783 254.46783 0 0 1 287.21484 506.81836 A 254.46784 254.46784 0 0 0 288.50586 506.64844 z M 221.66797 506.8125 A 254.46784 254.46784 0 0 0 222.7793 506.95508 A 254.46783 254.46783 0 0 1 221.66797 506.8125 z M 225.66211 507.29883 A 254.46784 254.46784 0 0 0 226.92188 507.43945 A 254.46783 254.46783 0 0 1 225.66211 507.29883 z M 229.66406 507.72266 A 254.46784 254.46784 0 0 0 230.78125 507.83008 A 254.46783 254.46783 0 0 1 229.66406 507.72266 z M 231.05469 507.85547 A 254.46784 254.46784 0 0 0 232.03125 507.94336 A 254.46783 254.46783 0 0 1 231.05469 507.85547 z M 233.67188 508.08398 A 254.46784 254.46784 0 0 0 235.00977 508.18945 A 254.46783 254.46783 0 0 1 233.67188 508.08398 z M 237.68555 508.38086 A 254.46784 254.46784 0 0 0 238.99414 508.46484 A 254.46783 254.46783 0 0 1 237.68555 508.38086 z M 240.00781 508.52344 A 254.46784 254.46784 0 0 0 241.34766 508.5957 A 254.46783 254.46783 0 0 1 240.00781 508.52344 z M 268.39062 508.55273 A 254.46783 254.46783 0 0 1 267.17969 508.61719 A 254.46784 254.46784 0 0 0 268.39062 508.55273 z M 247.09961 508.82812 A 254.46784 254.46784 0 0 0 248.18164 508.85742 A 254.46783 254.46783 0 0 1 247.09961 508.82812 z "
       transform="matrix(0.26458333,0,0,0.26458333,28.478867,25.04335)" />
  </g>
</svg>
